#!OML:ASF E:\Steps\Project 1\Capture day 1\Session 2\Subject.ASF
:FULLY-SPECIFIED
:DEGREES
467
root 9.22356 16.4328 3.04887 -150.054 1.22331 178.645
lowerback -22.177 -2.48548 -3.71604
upperback -3.61638 -1.69857 0.241881
thorax 8.5504 -0.616677 1.94131
lowerneck -6.49508 -1.5417 1.71975
upperneck 5.22377 -2.17457 -0.601813
head 2.76786 -1.06394 -0.586676
rclavicle -1.1778e-014 2.98177e-015
rhumerus -29.499 -7.98961 -84.5907
rradius 25.026
rwrist 5.57932
rhand -9.02554 -55.0489
rfingers 7.12502
rthumb 16.9219 -804.332
lclavicle -1.1778e-014 2.98177e-015
lhumerus -27.6592 -6.9559 87.0178
lradius 20.0995
lwrist -8.82511
lhand -21.1265 -11.8759
lfingers 7.12502
lthumb 5.25221 18.039
rfemur -38.8627 7.83651 15.5096
rtibia 24.4267
rfoot -21.347 -10.331
rtoes -28.1701
lfemur -39.5428 -7.89741 -18.4585
ltibia 26.6428
lfoot -12.1545 6.54708
ltoes -24.016
468
root 9.21188 16.4742 3.00911 -149.795 1.2186 178.649
lowerback -22.6906 -2.5027 -3.64614
upperback -3.71834 -1.67524 0.209322
thorax 8.70587 -0.586891 1.86765
lowerneck -6.89155 -1.30008 1.76552
upperneck 5.55153 -1.87242 -0.460459
head 2.95923 -0.904918 -0.54373
rclavicle 1.09332e-014 9.54166e-015
rhumerus -30.2524 -8.47226 -84.1295
rradius 24.8326
rwrist 5.62966
rhand -8.59777 -55.4989
rfingers 7.12502
rthumb 17.3336 -804.746
lclavicle 1.09332e-014 9.54166e-015
lhumerus -28.4449 -7.1605 87.0282
lradius 20.2068
lwrist -8.02117
lhand -20.7348 -11.4107
lfingers 7.12502
lthumb 5.63038 18.4945
rfemur -37.7614 7.7783 15.4213
rtibia 22.053
rfoot -20.3934 -10.1337
rtoes -27.9008
lfemur -38.5881 -7.70243 -18.5407
ltibia 24.5176
lfoot -11.1958 6.59625
ltoes -25.6089
469
root 9.19968 16.511 2.96754 -149.619 1.25212 178.824
lowerback -23.091 -2.49016 -3.42775
upperback -3.80929 -1.67015 0.246736
thorax 8.811 -0.565601 1.78186
lowerneck -6.9659 -1.35671 1.68654
upperneck 5.87678 -1.94055 -0.455319
head 3.08451 -0.937056 -0.535246
rclavicle 7.25564e-015 -1.59028e-015
rhumerus -30.977 -9.02846 -83.67
rradius 24.7709
rwrist 5.58383
rhand -8.21521 -56.2085
rfingers 7.12502
rthumb 17.7018 -805.423
lclavicle 7.25564e-015 -1.59028e-015
lhumerus -29.2038 -6.99368 86.9317
lradius 20.215
lwrist -7.65744
lhand -20.3545 -11.3572
lfingers 7.12502
lthumb 5.99755 18.5379
rfemur -36.7905 7.72361 15.5707
rtibia 20.1457
rfoot -19.7015 -9.80482
rtoes -27.9289
lfemur -37.5315 -7.42195 -18.4511
ltibia 22.4542
lfoot -10.4454 6.57549
ltoes -25.8448
470
root 9.19115 16.5388 2.92276 -149.578 1.47001 178.855
lowerback -23.3716 -2.47743 -3.44815
upperback -3.91987 -1.60541 0.220543
thorax 8.83264 -0.52062 1.78301
lowerneck -6.87535 -1.49216 1.59534
upperneck 6.297 -2.10582 -0.464176
head 3.21028 -1.0164 -0.53276
rclavicle 4.52235e-015 7.95139e-016
rhumerus -31.7504 -10.1054 -82.9082
rradius 23.9661
rwrist 6.59202
rhand -9.03696 -55.0212
rfingers 7.12502
rthumb 16.9109 -804.305
lclavicle 4.52235e-015 7.95139e-016
lhumerus -30.0807 -6.63342 86.7739
lradius 20.2607
lwrist -7.60601
lhand -20.0781 -11.051
lfingers 7.12502
lthumb 6.26446 18.8363
rfemur -35.7691 7.80997 15.4893
rtibia 18.3671
rfoot -19.1031 -9.58395
rtoes -27.9003
lfemur -36.4008 -7.13517 -18.5331
ltibia 20.5839
lfoot -9.88281 6.54155
ltoes -24.6478
471
root 9.1848 16.5546 2.89032 -149.344 1.43181 178.769
lowerback -23.705 -2.55583 -3.53025
upperback -4.17294 -1.6094 0.170002
thorax 8.72857 -0.491825 1.77385
lowerneck -6.87361 -1.45738 1.65196
upperneck 6.66424 -2.06475 -0.400092
head 3.33746 -0.986713 -0.523083
rclavicle 6.5102e-015 -1.2921e-014
rhumerus -32.8683 -10.4313 -82.4149
rradius 23.9438
rwrist 6.36418
rhand -9.34845 -55.1195
rfingers 7.12502
rthumb 16.611 -804.429
lclavicle 6.5102e-015 -1.2921e-014
lhumerus -31.0515 -6.48677 86.6411
lradius 20.3151
lwrist -7.48799
lhand -19.8549 -10.8001
lfingers 7.12502
lthumb 6.4799 19.0808
rfemur -34.9561 7.85932 15.2707
rtibia 16.593
rfoot -18.5697 -9.60734
rtoes -27.3949
lfemur -35.6733 -7.0275 -18.6513
ltibia 18.8908
lfoot -9.2178 6.46733
ltoes -24.8075
472
root 9.17961 16.5661 2.86501 -148.996 1.276 178.705
lowerback -24.1404 -2.65059 -3.57078
upperback -4.20373 -1.6741 0.142288
thorax 8.92657 -0.513165 1.74177
lowerneck -7.76952 -1.22222 1.70299
upperneck 6.73299 -1.79239 -0.236842
head 3.54034 -0.845121 -0.475726
rclavicle -4.57205e-015 -1.21259e-014
rhumerus -33.4888 -10.5853 -82.1394
rradius 24.2996
rwrist 5.68002
rhand -8.97773 -55.8003
rfingers 7.12502
rthumb 16.9679 -805.079
lclavicle -4.57205e-015 -1.21259e-014
lhumerus -31.4326 -6.52699 86.4836
lradius 20.3089
lwrist -7.34883
lhand -19.6275 -10.6666
lfingers 7.12502
lthumb 6.69943 19.2074
rfemur -34.4187 7.94977 15.0669
rtibia 15.0608
rfoot -18.0716 -9.78707
rtoes -26.7703
lfemur -35.1258 -7.0129 -18.6554
ltibia 17.2027
lfoot -8.62137 6.3149
ltoes -24.7628
473
root 9.17385 16.5758 2.83297 -148.899 1.23328 178.647
lowerback -24.5058 -2.72587 -3.65935
upperback -4.20583 -1.71265 0.12163
thorax 9.11973 -0.527948 1.75294
lowerneck -8.25789 -0.924496 1.75588
upperneck 6.89531 -1.42421 -0.0784383
head 3.69843 -0.652748 -0.418412
rclavicle -3.77691e-015 -2.18663e-015
rhumerus -34.1182 -11.2356 -81.5712
rradius 24.2738
rwrist 5.79543
rhand -8.65956 -56.1041
rfingers 7.12502
rthumb 17.2741 -805.356
lclavicle -3.77691e-015 -2.18663e-015
lhumerus -32.1098 -6.75884 86.4351
lradius 20.5203
lwrist -6.99458
lhand -19.3915 -10.6036
lfingers 7.12502
lthumb 6.92726 19.263
rfemur -33.6418 8.03053 14.9257
rtibia 13.5495
rfoot -17.5097 -9.89066
rtoes -26.4839
lfemur -34.3134 -6.9538 -18.7139
ltibia 15.6274
lfoot -8.09104 6.10271
ltoes -24.7025
474
root 9.1693 16.5754 2.79774 -148.875 1.16091 178.683
lowerback -24.7595 -2.78113 -3.67071
upperback -4.30353 -1.74474 0.153496
thorax 9.14629 -0.529467 1.78316
lowerneck -8.59814 -0.560505 1.92827
upperneck 6.99297 -0.973077 0.016289
head 3.80515 -0.418984 -0.39453
rclavicle -2.05245e-014 -8.74653e-015
rhumerus -34.8943 -12.1111 -80.7589
rradius 23.9324
rwrist 6.43048
rhand -8.59262 -55.7144
rfingers 7.12502
rthumb 17.3385 -804.961
lclavicle -2.05245e-014 -8.74653e-015
lhumerus -33.0042 -6.93971 86.4561
lradius 20.7739
lwrist -6.53629
lhand -19.1954 -10.7155
lfingers 7.12502
lthumb 7.11649 19.1448
rfemur -32.7352 8.08563 14.9445
rtibia 11.9596
rfoot -16.993 -9.97012
rtoes -26.3557
lfemur -33.5409 -6.76158 -18.7418
ltibia 14.3119
lfoot -7.51114 5.88054
ltoes -26.8631
475
root 9.16468 16.5684 2.76901 -148.748 1.05669 178.812
lowerback -24.9391 -2.80443 -3.57887
upperback -4.46367 -1.76142 0.215359
thorax 9.06079 -0.515173 1.79458
lowerneck -7.24065 -1.89878 1.4465
upperneck 8.20501 -2.61213 -0.466432
head 3.94534 -1.24339 -0.55761
rclavicle 1.96797e-014 -5.56597e-015
rhumerus -35.7173 -12.6437 -80.0865
rradius 23.7171
rwrist 6.55057
rhand -8.64459 -55.3426
rfingers 7.12502
rthumb 17.2885 -804.594
lclavicle 1.96797e-014 -5.56597e-015
lhumerus -33.712 -6.80289 86.374
lradius 20.8594
lwrist -6.39845
lhand -18.92 -10.6678
lfingers 7.12502
lthumb 7.38238 19.1834
rfemur -32.0204 8.24463 15.0313
rtibia 10.5173
rfoot -16.6707 -10.1674
rtoes -26.3615
lfemur -33.0013 -6.60457 -18.6227
ltibia 13.1822
lfoot -7.15704 5.74652
ltoes -27.5374
476
root 9.15769 16.5634 2.74217 -148.804 1.13234 178.917
lowerback -24.9483 -2.75232 -3.55663
upperback -4.52418 -1.68843 0.21765
thorax 8.99309 -0.473388 1.809
lowerneck -9.74724 -0.106976 1.65984
upperneck 7.95823 -0.401713 0.504823
head 4.38964 -0.107432 -0.154183
rclavicle 3.97569e-016 -6.16232e-015
rhumerus -36.5438 -12.8333 -79.6537
rradius 23.9115
rwrist 6.14781
rhand -8.74746 -55.0032
rfingers 7.12502
rthumb 17.1895 -804.263
lclavicle 3.97569e-016 -6.16232e-015
lhumerus -34.2234 -6.53859 86.1645
lradius 20.862
lwrist -6.44841
lhand -18.5654 -10.8615
lfingers 7.12502
lthumb 7.72466 18.9774
rfemur -31.2654 8.5802 15.0153
rtibia 9.3163
rfoot -16.4682 -10.3602
rtoes -26.5826
lfemur -32.2376 -6.61336 -18.5124
ltibia 12.028
lfoot -7.04451 5.8577
ltoes -25.9492
477
root 9.15011 16.5504 2.71278 -148.876 1.3374 178.982
lowerback -25.0568 -2.66887 -3.57844
upperback -4.56455 -1.55055 0.158319
thorax 8.99523 -0.402006 1.79992
lowerneck -8.84461 -0.913536 1.45715
upperneck 8.6131 -1.398 0.227448
head 4.43502 -0.607743 -0.27534
rclavicle 5.46658e-015 -5.76476e-015
rhumerus -37.3799 -13.2 -79.2042
rradius 24.1954
rwrist 5.97719
rhand -8.55814 -55.5644
rfingers 7.12502
rthumb 17.3717 -804.808
lclavicle 5.46658e-015 -5.76476e-015
lhumerus -34.9206 -6.6858 86.0271
lradius 21.1112
lwrist -6.15672
lhand -18.3573 -11.0718
lfingers 7.12502
lthumb 7.92549 18.7596
rfemur -30.5292 8.72242 14.9854
rtibia 8.15031
rfoot -16.2363 -10.1844
rtoes -26.4364
lfemur -31.4343 -6.55899 -18.5233
ltibia 10.8828
lfoot -7.02767 5.97116
ltoes -24.8384
